<svg fill="#000000" viewBox="0 0 30 30" xmlns="http://www.w3.org/2000/svg"><g id="SVGRepo_bgCarrier" stroke-width="0"></g><g id="SVGRepo_tracerCarrier" stroke-linecap="round" stroke-linejoin="round"></g><g id="SVGRepo_iconCarrier"><path d="M3.5 10h23c.674 0 .658-1 0-1h-23c-.673 0-.654 1 0 1zm1.344-4.126l-3.64 3.644 3.64 3.612c.463.45-.235 1.2-.71.71L.14 9.873c-.186-.186-.186-.525 0-.71l3.994-4c.487-.49 1.18.238.71.71zM26.5 20h-23c-.673 0-.657 1 0 1h23c.674 0 .655-1 0-1zm-1.344 4.126l3.64-3.644-3.64-3.612c-.463-.45.235-1.2.71-.71l3.994 3.967c.186.186.186.525 0 .71l-3.994 4c-.487.49-1.18-.238-.71-.71z"></path></g></svg>